<svg width="21" height="25" viewBox="0 0 21 25" fill="none" xmlns="http://www.w3.org/2000/svg">
<g clip-path="url(#clip0_9_888)">
<path d="M20.0353 18.9829C19.6849 19.7938 19.2701 20.5402 18.7895 21.2264C18.1344 22.1619 17.598 22.8094 17.1846 23.169C16.5438 23.7593 15.8573 24.0615 15.1221 24.0787C14.5943 24.0787 13.9578 23.9283 13.2169 23.6232C12.4735 23.3194 11.7904 23.169 11.1657 23.169C10.5106 23.169 9.80805 23.3194 9.05654 23.6232C8.30389 23.9283 7.69757 24.0873 7.23399 24.1031C6.52897 24.1332 5.82624 23.8223 5.1248 23.169C4.6771 22.7779 4.11712 22.1075 3.44629 21.1576C2.72654 20.1433 2.1348 18.9672 1.67123 17.6262C1.17475 16.1779 0.925873 14.7753 0.925873 13.4175C0.925873 11.8621 1.26143 10.5206 1.93355 9.39643C2.46178 8.49345 3.16451 7.78115 4.04403 7.25825C4.92355 6.73534 5.87387 6.46888 6.89729 6.45183C7.45727 6.45183 8.19161 6.62532 9.10417 6.96628C10.0142 7.30839 10.5985 7.48188 10.8546 7.48188C11.0462 7.48188 11.6952 7.27902 12.7956 6.87459C13.8362 6.49953 14.7144 6.34424 15.4339 6.40541C17.3835 6.563 18.8481 7.33274 19.8222 8.71951C18.0786 9.77765 17.2161 11.2597 17.2333 13.1609C17.249 14.6418 17.7854 15.8741 18.8395 16.8526C19.3173 17.3068 19.8508 17.6577 20.4444 17.907C20.3157 18.2809 20.1798 18.6391 20.0353 18.9829ZM15.5641 1.36031C15.5641 2.52103 15.1407 3.60479 14.2968 4.60791C13.2784 5.80042 12.0465 6.4895 10.7107 6.38077C10.6937 6.24152 10.6838 6.09496 10.6838 5.94096C10.6838 4.82667 11.1682 3.63416 12.0282 2.65912C12.4576 2.16544 13.0037 1.75495 13.666 1.4275C14.3268 1.10493 14.9519 0.926544 15.5397 0.895996C15.5569 1.05117 15.5641 1.20635 15.5641 1.36029V1.36031Z" fill="black"/>
</g>
<defs>
<clipPath id="clip0_9_888">
<rect width="19.5185" height="23.2091" fill="white" transform="translate(0.925873 0.895508)"/>
</clipPath>
</defs>
</svg>
