<svg width="16" height="21" viewBox="0 0 16 21" fill="none" xmlns="http://www.w3.org/2000/svg">
<path opacity="0.4" d="M7.99118 16.6349L1.49945 19.8775C1.00921 20.1436 0.397683 19.9659 0.123484 19.4777C0.0434041 19.3242 0.00105752 19.1536 0 18.9802V11.7222C0 12.4418 0.405733 12.8859 1.47299 13.3834L7.99118 16.6349Z" fill="#33724E"/>
<path fill-rule="evenodd" clip-rule="evenodd" d="M4.89526 0.0131836H11.0695C13.7773 0.0131836 15.9735 1.07924 16 3.80655V18.98C15.9989 19.1506 15.9565 19.3183 15.8765 19.4686C15.7479 19.7138 15.5259 19.8959 15.2615 19.9729C14.997 20.05 14.7128 20.0155 14.4741 19.8773L7.99118 16.6347L1.47299 13.3833C0.405733 12.8858 0 12.4416 0 11.722V3.80655C0 1.07924 2.19625 0.0131836 4.89526 0.0131836ZM4.22492 7.63545H11.7486C12.1822 7.63545 12.5336 7.28147 12.5336 6.8448C12.5336 6.40813 12.1822 6.05414 11.7486 6.05414H4.22492C3.79137 6.05414 3.43991 6.40813 3.43991 6.8448C3.43991 7.28147 3.79137 7.63545 4.22492 7.63545Z" fill="#33724E"/>
</svg>
