<svg width="60" height="60" viewBox="0 0 60 60" fill="none" xmlns="http://www.w3.org/2000/svg">
<path fill-rule="evenodd" clip-rule="evenodd" d="M30 60C46.5685 60 60 46.5685 60 30C60 13.4315 46.5685 0 30 0C13.4315 0 0 13.4315 0 30C0 46.5685 13.4315 60 30 60Z" fill="#F5F9FC"/>
<path fill-rule="evenodd" clip-rule="evenodd" d="M26.8162 29.1754C25.8995 28.2444 25.3641 26.9447 25.4431 25.5375C25.5918 22.8907 27.858 20.8655 30.5048 21.0142C33.1515 21.1629 35.1767 23.4291 35.028 26.0759C34.949 27.4831 34.2713 28.7146 33.2562 29.5371C36.8915 31.0683 39.3477 34.7613 39.1138 38.9252L37.3167 38.8243C37.5582 34.5232 34.2674 30.8407 29.9664 30.5991C25.6653 30.3575 21.9828 33.6484 21.7412 37.9494L19.944 37.8484C20.1779 33.6845 23.0322 30.2898 26.8162 29.1754ZM30.0673 28.8019C31.7216 28.8949 33.1379 27.6292 33.2308 25.9749C33.3238 24.3207 32.0581 22.9043 30.4038 22.8114C28.7496 22.7185 27.3332 23.9842 27.2403 25.6384C27.1474 27.2927 28.4131 28.709 30.0673 28.8019Z" fill="#304659"/>
</svg>
