<svg width="80" height="9" viewBox="0 0 80 9" fill="none" xmlns="http://www.w3.org/2000/svg">
<path d="M4 8.34009C6.20914 8.34009 8 6.4731 8 4.17004C8 1.86699 6.20914 0 4 0C1.79086 0 0 1.86699 0 4.17004C0 6.4731 1.79086 8.34009 4 8.34009Z" fill="#141416"/>
<path d="M22 8.34009C24.2091 8.34009 26 6.4731 26 4.17004C26 1.86699 24.2091 0 22 0C19.7909 0 18 1.86699 18 4.17004C18 6.4731 19.7909 8.34009 22 8.34009Z" fill="#E1E5EE"/>
<path d="M40 8.34009C42.2091 8.34009 44 6.4731 44 4.17004C44 1.86699 42.2091 0 40 0C37.7909 0 36 1.86699 36 4.17004C36 6.4731 37.7909 8.34009 40 8.34009Z" fill="#E1E5EE"/>
<path d="M58 8.34009C60.2091 8.34009 62 6.4731 62 4.17004C62 1.86699 60.2091 0 58 0C55.7909 0 54 1.86699 54 4.17004C54 6.4731 55.7909 8.34009 58 8.34009Z" fill="#E1E5EE"/>
<path d="M76 8.34009C78.2091 8.34009 80 6.4731 80 4.17004C80 1.86699 78.2091 0 76 0C73.7909 0 72 1.86699 72 4.17004C72 6.4731 73.7909 8.34009 76 8.34009Z" fill="#E1E5EE"/>
</svg>
