<svg width="70" height="34" viewBox="0 0 70 34" fill="none" xmlns="http://www.w3.org/2000/svg">
<path d="M69.7086 17C69.7086 26.2947 63.4212 33.75 55.755 33.75C48.0888 33.75 41.8014 26.2947 41.8014 17C41.8014 7.70527 48.0888 0.25 55.755 0.25C63.4212 0.25 69.7086 7.70527 69.7086 17Z" fill="#446622" fill-opacity="0.2" stroke="#33724E" stroke-width="0.5"/>
<g clip-path="url(#clip0_342_119)">
<path d="M57.3999 10.5752H54.1101C51.1023 10.5752 48.6584 13.4158 48.6584 16.9033C48.6584 20.3908 50.5383 22.8377 55.1441 25.3127C55.2616 25.3689 55.3556 25.3971 55.473 25.3971C55.6375 25.3971 55.7785 25.3408 55.9195 25.2283C56.1545 25.0596 56.2955 24.7502 56.2955 24.4127V23.2033H57.3999C60.4078 23.2033 62.8751 20.3627 62.8751 16.8752C62.8751 13.3877 60.4078 10.5752 57.3999 10.5752ZM57.3999 21.9939H56.037C55.5905 21.9939 55.2146 22.4439 55.2146 22.9783V24.0189C51.2433 21.8252 49.6924 19.8002 49.6924 16.9314C49.6924 14.1471 51.6663 11.8689 54.1101 11.8689H57.3999C59.8203 11.8689 61.8177 14.1471 61.8177 16.9314C61.8177 19.7158 59.8203 21.9939 57.3999 21.9939Z" fill="#33724E"/>
<path d="M52.7707 16.2847C52.4652 16.2847 52.2302 16.5659 52.2302 16.9315C52.2302 17.2972 52.4652 17.5784 52.7707 17.5784C53.0762 17.5784 53.3112 17.2972 53.3112 16.9315C53.3112 16.5659 53.0762 16.2847 52.7707 16.2847Z" fill="#33724E"/>
<path d="M55.7551 16.2847C55.4496 16.2847 55.2146 16.5659 55.2146 16.9315C55.2146 17.2972 55.4496 17.5784 55.7551 17.5784C56.0371 17.5784 56.2955 17.2972 56.2955 16.9315C56.2955 16.5659 56.0371 16.2847 55.7551 16.2847Z" fill="#33724E"/>
<path d="M58.7393 16.2847C58.4338 16.2847 58.1989 16.5659 58.1989 16.9315C58.1989 17.2972 58.4338 17.5784 58.7393 17.5784C59.0448 17.5784 59.2798 17.2972 59.2798 16.9315C59.2798 16.5659 59.0213 16.2847 58.7393 16.2847Z" fill="#33724E"/>
</g>
<path d="M68.1231 5C68.1231 7.38498 66.5397 9 64.9456 9C63.3515 9 61.7681 7.38498 61.7681 5C61.7681 2.61502 63.3515 1 64.9456 1C66.5397 1 68.1231 2.61502 68.1231 5Z" fill="#DC3545" stroke="white" stroke-width="2"/>
<path d="M28.7689 17C28.7689 26.2947 22.4814 33.75 14.8152 33.75C7.14903 33.75 0.861572 26.2947 0.861572 17C0.861572 7.70527 7.14903 0.25 14.8152 0.25C22.4814 0.25 28.7689 7.70527 28.7689 17Z" fill="#446622" fill-opacity="0.2" stroke="#33724E" stroke-width="0.5"/>
<path d="M20.8309 22.9343L20.3609 22.0624C20.2669 21.8937 20.2199 21.7249 20.2199 21.528V15.678C20.2199 14.0187 19.6325 12.4718 18.5515 11.3187C17.6821 10.3905 16.5541 9.7999 15.3557 9.6874V9.1249C15.3557 8.7874 15.1207 8.47803 14.8152 8.47803C14.5333 8.47803 14.2748 8.75928 14.2748 9.1249V9.65928C14.2278 9.65928 14.1808 9.65928 14.1338 9.6874C11.4079 10.053 9.36356 12.6687 9.36356 15.7905V21.528C9.34006 21.8093 9.29306 21.9499 9.24607 22.0343L8.79959 22.9343C8.6586 23.2155 8.6586 23.553 8.79959 23.8343C8.94058 24.0874 9.17557 24.2562 9.43405 24.2562H14.2983V24.8749C14.2983 25.2124 14.5333 25.5218 14.8387 25.5218C15.1207 25.5218 15.3792 25.2405 15.3792 24.8749V24.2562H20.2199C20.4784 24.2562 20.7134 24.0874 20.8544 23.8343C20.9954 23.553 20.9954 23.2155 20.8309 22.9343ZM9.99802 22.9905L10.1625 22.653C10.3035 22.3718 10.374 22.0343 10.421 21.6405V15.7905C10.421 13.3155 12.0659 11.2343 14.2513 10.953C15.5907 10.7843 16.9066 11.2624 17.8701 12.2749C18.716 13.1749 19.186 14.3843 19.186 15.678V21.528C19.186 21.9499 19.28 22.3437 19.4915 22.7374L19.6325 22.9905H9.99802V22.9905Z" fill="#33724E"/>
<defs>
<clipPath id="clip0_342_119">
<rect width="15.0391" height="18" fill="white" transform="translate(48.2355 9)"/>
</clipPath>
</defs>
</svg>
