<svg width="71" height="40" viewBox="0 0 71 40" fill="none" xmlns="http://www.w3.org/2000/svg">
<path d="M70.4457 20C70.4457 25.2326 68.8606 29.9601 66.31 33.3738C63.7594 36.7874 60.2551 38.875 56.4058 38.875C52.5565 38.875 49.0522 36.7874 46.5016 33.3738C43.951 29.9601 42.366 25.2326 42.366 20C42.366 14.7674 43.951 10.0399 46.5016 6.62622C49.0522 3.21259 52.5565 1.125 56.4058 1.125C60.2551 1.125 63.7594 3.21259 66.31 6.62622C68.8606 10.0399 70.4457 14.7674 70.4457 20Z" fill="#446622" fill-opacity="0.2" stroke="#33724E" stroke-width="0.5"/>
<g clip-path="url(#clip0_342_152)">
<path d="M58.0607 12.772H54.7509C51.7248 12.772 49.2661 15.9677 49.2661 19.8911C49.2661 23.8146 51.1574 26.5673 55.7911 29.3517C55.9093 29.4149 56.0039 29.4466 56.1221 29.4466C56.2876 29.4466 56.4294 29.3833 56.5713 29.2567C56.8077 29.0669 56.9495 28.7188 56.9495 28.3392V26.9786H58.0607C61.0868 26.9786 63.5691 23.7829 63.5691 19.8595C63.5691 15.936 61.0868 12.772 58.0607 12.772ZM58.0607 25.6181H56.6895C56.2403 25.6181 55.862 26.1243 55.862 26.7255V27.8962C51.8667 25.4282 50.3063 23.1501 50.3063 19.9228C50.3063 16.7903 52.2922 14.2274 54.7509 14.2274H58.0607C60.4957 14.2274 62.5052 16.7903 62.5052 19.9228C62.5052 23.0552 60.4957 25.6181 58.0607 25.6181Z" fill="#33724E"/>
<path d="M53.4034 19.1948C53.096 19.1948 52.8596 19.5112 52.8596 19.9226C52.8596 20.3339 53.096 20.6503 53.4034 20.6503C53.7107 20.6503 53.9471 20.3339 53.9471 19.9226C53.9471 19.5112 53.7107 19.1948 53.4034 19.1948Z" fill="#33724E"/>
<path d="M56.4058 19.1948C56.0985 19.1948 55.8621 19.5112 55.8621 19.9226C55.8621 20.3339 56.0985 20.6503 56.4058 20.6503C56.6895 20.6503 56.9496 20.3339 56.9496 19.9226C56.9496 19.5112 56.6895 19.1948 56.4058 19.1948Z" fill="#33724E"/>
<path d="M59.4083 19.1948C59.1009 19.1948 58.8645 19.5112 58.8645 19.9226C58.8645 20.3339 59.1009 20.6503 59.4083 20.6503C59.7156 20.6503 59.952 20.3339 59.952 19.9226C59.952 19.5112 59.6919 19.1948 59.4083 19.1948Z" fill="#33724E"/>
</g>
<path d="M68.855 6.5C68.855 7.85873 68.4423 9.05006 67.823 9.87892C67.2038 10.7076 66.4258 11.125 65.6521 11.125C64.8785 11.125 64.1005 10.7076 63.4813 9.87892C62.862 9.05006 62.4492 7.85873 62.4492 6.5C62.4492 5.14127 62.862 3.94994 63.4813 3.12108C64.1005 2.29239 64.8785 1.875 65.6521 1.875C66.4258 1.875 67.2038 2.29239 67.823 3.12108C68.4423 3.94994 68.855 5.14127 68.855 6.5Z" fill="#DC3545" stroke="white" stroke-width="2"/>
<path d="M29.2572 20C29.2572 25.2326 27.6722 29.9601 25.1215 33.3738C22.5709 36.7874 19.0666 38.875 15.2173 38.875C11.368 38.875 7.86377 36.7874 5.31316 33.3738C2.76252 29.9601 1.17749 25.2326 1.17749 20C1.17749 14.7674 2.76252 10.0399 5.31316 6.62622C7.86377 3.21259 11.368 1.125 15.2173 1.125C19.0666 1.125 22.5709 3.21259 25.1215 6.62622C27.6722 10.0399 29.2572 14.7674 29.2572 20Z" fill="#446622" fill-opacity="0.2" stroke="#33724E" stroke-width="0.5"/>
<path d="M21.2696 26.6764L20.7967 25.6955C20.7022 25.5057 20.6549 25.3158 20.6549 25.0943V18.5131C20.6549 16.6463 20.0639 14.9061 18.9764 13.6088C18.1016 12.5646 16.9669 11.9002 15.7611 11.7736V11.1408C15.7611 10.7611 15.5247 10.4131 15.2174 10.4131C14.9337 10.4131 14.6736 10.7295 14.6736 11.1408V11.742C14.6264 11.742 14.5791 11.742 14.5318 11.7736C11.7894 12.185 9.73262 15.1275 9.73262 18.6396V25.0943C9.70897 25.4107 9.66169 25.5689 9.61441 25.6639L9.16522 26.6764C9.02338 26.9928 9.02338 27.3725 9.16522 27.6889C9.30707 27.9736 9.54348 28.1635 9.80354 28.1635H14.6973V28.8596C14.6973 29.2393 14.9337 29.5873 15.241 29.5873C15.5247 29.5873 15.7848 29.2709 15.7848 28.8596V28.1635H20.6549C20.915 28.1635 21.1514 27.9736 21.2932 27.6889C21.4351 27.3725 21.4351 26.9928 21.2696 26.6764ZM10.3709 26.7396L10.5364 26.36C10.6783 26.0436 10.7492 25.6639 10.7965 25.2209V18.6396C10.7965 15.8553 12.4514 13.5139 14.65 13.1975C15.9976 13.0076 17.3215 13.5455 18.2908 14.6846C19.1419 15.6971 19.6147 17.0576 19.6147 18.5131V25.0943C19.6147 25.5689 19.7092 26.0119 19.922 26.4549L20.0639 26.7396H10.3709V26.7396Z" fill="#33724E"/>
<defs>
<clipPath id="clip0_342_152">
<rect width="15.1304" height="20.25" fill="white" transform="translate(48.8406 11)"/>
</clipPath>
</defs>
</svg>
