<svg width="36" height="34" viewBox="0 0 36 34" fill="none" xmlns="http://www.w3.org/2000/svg">
<ellipse cx="17.9226" cy="17" rx="17.8611" ry="17" fill="#446622" fill-opacity="0.2"/>
<path d="M35.5337 17C35.5337 26.2393 27.6608 33.75 17.9226 33.75C8.1845 33.75 0.311523 26.2393 0.311523 17C0.311523 7.76073 8.1845 0.25 17.9226 0.25C27.6608 0.25 35.5337 7.76073 35.5337 17Z" stroke="#446622" stroke-opacity="0.2" stroke-width="0.5"/>
<path d="M24.8606 21.9343L24.2696 21.0624C24.1514 20.8937 24.0923 20.7249 24.0923 20.528V14.678C24.0923 13.0187 23.3535 11.4718 21.9943 10.3187C20.9009 9.39053 19.4825 8.7999 17.9755 8.6874V8.1249C17.9755 7.7874 17.68 7.47803 17.2958 7.47803C16.9412 7.47803 16.6162 7.75928 16.6162 8.1249V8.65928C16.5571 8.65928 16.498 8.65928 16.4389 8.6874C13.0111 9.05303 10.4403 11.6687 10.4403 14.7905V20.528C10.4108 20.8093 10.3517 20.9499 10.2926 21.0343L9.73112 21.9343C9.55382 22.2155 9.55382 22.553 9.73112 22.8343C9.90842 23.0874 10.2039 23.2562 10.529 23.2562H16.6458V23.8749C16.6458 24.2124 16.9412 24.5218 17.3254 24.5218C17.68 24.5218 18.005 24.2405 18.005 23.8749V23.2562H24.0923C24.4173 23.2562 24.7128 23.0874 24.8901 22.8343C25.0674 22.553 25.0674 22.2155 24.8606 21.9343ZM11.2382 21.9905L11.445 21.653C11.6223 21.3718 11.7109 21.0343 11.77 20.6405V14.7905C11.77 12.3155 13.8385 10.2343 16.5867 9.95303C18.271 9.78428 19.9258 10.2624 21.1373 11.2749C22.2011 12.1749 22.7921 13.3843 22.7921 14.678V20.528C22.7921 20.9499 22.9103 21.3437 23.1762 21.7374L23.3535 21.9905H11.2382Z" fill="#33724E"/>
</svg>
