<svg width="71" height="34" viewBox="0 0 71 34" fill="none" xmlns="http://www.w3.org/2000/svg">
<path d="M70.4459 17C70.4459 26.2932 64.1211 33.75 56.4061 33.75C48.691 33.75 42.3662 26.2932 42.3662 17C42.3662 7.70679 48.691 0.25 56.4061 0.25C64.1211 0.25 70.4459 7.70679 70.4459 17Z" fill="#446622" fill-opacity="0.2" stroke="#33724E" stroke-width="0.5"/>
<g clip-path="url(#clip0_342_86)">
<path d="M58.0612 10.5752H54.7514C51.7253 10.5752 49.2666 13.4158 49.2666 16.9033C49.2666 20.3908 51.1579 22.8377 55.7916 25.3127C55.9098 25.3689 56.0044 25.3971 56.1226 25.3971C56.2881 25.3971 56.4299 25.3408 56.5718 25.2283C56.8082 25.0596 56.95 24.7502 56.95 24.4127V23.2033H58.0612C61.0873 23.2033 63.5696 20.3627 63.5696 16.8752C63.5696 13.3877 61.0873 10.5752 58.0612 10.5752ZM58.0612 21.9939H56.69C56.2408 21.9939 55.8625 22.4439 55.8625 22.9783V24.0189C51.8671 21.8252 50.3068 19.8002 50.3068 16.9314C50.3068 14.1471 52.2927 11.8689 54.7514 11.8689H58.0612C60.4962 11.8689 62.5057 14.1471 62.5057 16.9314C62.5057 19.7158 60.4962 21.9939 58.0612 21.9939Z" fill="#33724E"/>
<path d="M53.4036 16.2847C53.0963 16.2847 52.8599 16.5659 52.8599 16.9315C52.8599 17.2972 53.0963 17.5784 53.4036 17.5784C53.7109 17.5784 53.9474 17.2972 53.9474 16.9315C53.9474 16.5659 53.7109 16.2847 53.4036 16.2847Z" fill="#33724E"/>
<path d="M56.4061 16.2847C56.0987 16.2847 55.8623 16.5659 55.8623 16.9315C55.8623 17.2972 56.0987 17.5784 56.4061 17.5784C56.6897 17.5784 56.9498 17.2972 56.9498 16.9315C56.9498 16.5659 56.6897 16.2847 56.4061 16.2847Z" fill="#33724E"/>
<path d="M59.4085 16.2847C59.1012 16.2847 58.8647 16.5659 58.8647 16.9315C58.8647 17.2972 59.1012 17.5784 59.4085 17.5784C59.7158 17.5784 59.9522 17.2972 59.9522 16.9315C59.9522 16.5659 59.6922 16.2847 59.4085 16.2847Z" fill="#33724E"/>
</g>
<path d="M68.8555 5C68.8555 7.37888 67.2659 9 65.6526 9C64.0394 9 62.4497 7.37888 62.4497 5C62.4497 2.62112 64.0394 1 65.6526 1C67.2659 1 68.8555 2.62112 68.8555 5Z" fill="#DC3545" stroke="white" stroke-width="2"/>
<path d="M29.2574 17C29.2574 26.2932 22.9327 33.75 15.2176 33.75C7.50251 33.75 1.17773 26.2932 1.17773 17C1.17773 7.70679 7.50251 0.25 15.2176 0.25C22.9327 0.25 29.2574 7.70679 29.2574 17Z" fill="#446622" fill-opacity="0.2" stroke="#33724E" stroke-width="0.5"/>
<path d="M21.2698 22.9343L20.797 22.0624C20.7024 21.8937 20.6551 21.7249 20.6551 21.528V15.678C20.6551 14.0187 20.0641 12.4718 18.9766 11.3187C18.1019 10.3905 16.9671 9.7999 15.7614 9.6874V9.1249C15.7614 8.7874 15.525 8.47803 15.2176 8.47803C14.9339 8.47803 14.6739 8.75928 14.6739 9.1249V9.65928C14.6266 9.65928 14.5793 9.65928 14.532 9.6874C11.7897 10.053 9.73286 12.6687 9.73286 15.7905V21.528C9.70922 21.8093 9.66194 21.9499 9.61465 22.0343L9.16547 22.9343C9.02362 23.2155 9.02362 23.553 9.16547 23.8343C9.30732 24.0874 9.54373 24.2562 9.80378 24.2562H14.6975V24.8749C14.6975 25.2124 14.9339 25.5218 15.2413 25.5218C15.525 25.5218 15.785 25.2405 15.785 24.8749V24.2562H20.6551C20.9152 24.2562 21.1516 24.0874 21.2935 23.8343C21.4353 23.553 21.4353 23.2155 21.2698 22.9343ZM10.3712 22.9905L10.5367 22.653C10.6785 22.3718 10.7494 22.0343 10.7967 21.6405V15.7905C10.7967 13.3155 12.4516 11.2343 14.6503 10.953C15.9978 10.7843 17.3217 11.2624 18.291 12.2749C19.1421 13.1749 19.6149 14.3843 19.6149 15.678V21.528C19.6149 21.9499 19.7095 22.3437 19.9223 22.7374L20.0641 22.9905H10.3712V22.9905Z" fill="#33724E"/>
<defs>
<clipPath id="clip0_342_86">
<rect width="15.1304" height="18" fill="white" transform="translate(48.8408 9)"/>
</clipPath>
</defs>
</svg>
