<svg width="553" height="513" viewBox="0 0 553 513" fill="none" xmlns="http://www.w3.org/2000/svg">
<g filter="url(#filter0_d_11_2096)">
<path d="M104.061 3.99999C104.061 2.89543 104.956 2 106.061 2H541C542.104 2 543 2.89543 543 4V492.519C543 493.624 542.104 494.519 541 494.519H106.061C104.956 494.519 104.061 493.624 104.061 492.519V3.99999Z" fill="white"/>
<path d="M104.561 3.99999C104.561 3.17157 105.233 2.5 106.061 2.5H541C541.828 2.5 542.5 3.17157 542.5 4V492.519C542.5 493.348 541.828 494.019 541 494.019H106.061C105.233 494.019 104.561 493.348 104.561 492.519V3.99999Z" stroke="#E2E8F0"/>
</g>
<mask id="path-3-inside-1_11_2096" fill="white">
<path d="M329.746 75.2969C358.619 75.2969 386.843 83.2996 410.849 98.293C434.856 113.286 453.566 134.597 464.615 159.53C475.664 184.464 478.555 211.899 472.922 238.368C467.29 264.837 453.386 289.15 432.971 308.233L396.842 274.464C410.112 262.06 419.15 246.256 422.811 229.051C426.472 211.846 424.593 194.013 417.411 177.807C410.229 161.6 398.067 147.748 382.463 138.002C366.859 128.257 348.513 123.055 329.746 123.055V75.2969Z"/>
</mask>
<path d="M329.746 75.2969C358.619 75.2969 386.843 83.2996 410.849 98.293C434.856 113.286 453.566 134.597 464.615 159.53C475.664 184.464 478.555 211.899 472.922 238.368C467.29 264.837 453.386 289.15 432.971 308.233L396.842 274.464C410.112 262.06 419.15 246.256 422.811 229.051C426.472 211.846 424.593 194.013 417.411 177.807C410.229 161.6 398.067 147.748 382.463 138.002C366.859 128.257 348.513 123.055 329.746 123.055V75.2969Z" stroke="#B4E881" stroke-width="100" mask="url(#path-3-inside-1_11_2096)"/>
<mask id="path-4-inside-2_11_2096" fill="white">
<path d="M432.971 308.233C414.577 325.426 391.603 337.713 366.425 343.822C341.247 349.931 314.78 349.641 289.762 342.981L303.757 297.049C320.018 301.378 337.222 301.567 353.587 297.596C369.953 293.625 384.886 285.639 396.842 274.464L432.971 308.233Z"/>
</mask>
<path d="M432.971 308.233C414.577 325.426 391.603 337.713 366.425 343.822C341.247 349.931 314.78 349.641 289.762 342.981L303.757 297.049C320.018 301.378 337.222 301.567 353.587 297.596C369.953 293.625 384.886 285.639 396.842 274.464L432.971 308.233Z" stroke="#D8FFB1" stroke-width="120" mask="url(#path-4-inside-2_11_2096)"/>
<mask id="path-5-inside-3_11_2096" fill="white">
<path d="M194.161 161.176C205.009 135.766 223.778 113.991 248.032 98.677C272.286 83.3629 300.905 75.2173 330.174 75.2975L330.024 123.055C311 123.003 292.397 128.298 276.632 138.252C260.867 148.206 248.667 162.36 241.616 178.876L194.161 161.176Z"/>
</mask>
<path d="M194.161 161.176C205.009 135.766 223.778 113.991 248.032 98.677C272.286 83.3629 300.905 75.2173 330.174 75.2975L330.024 123.055C311 123.003 292.397 128.298 276.632 138.252C260.867 148.206 248.667 162.36 241.616 178.876L194.161 161.176Z" stroke="#70B42C" stroke-width="80" mask="url(#path-5-inside-3_11_2096)"/>
<mask id="path-6-inside-4_11_2096" fill="white">
<path d="M0.0026974 179.879C0.0632313 179.951 0.0578849 180.054 0.0366647 180.146C0.0294483 180.177 0.027022 180.208 0.0294859 180.24C0.0358345 180.321 0.0745049 180.401 0.142963 180.473C0.211422 180.546 0.308123 180.61 0.426733 180.662C0.470292 180.681 0.516445 180.698 0.564744 180.713C0.720867 180.762 0.881457 180.675 0.956294 180.53C0.872862 180.518 0.795179 180.496 0.728334 180.467C0.661489 180.438 0.60699 180.402 0.568409 180.361C0.529828 180.32 0.241879 180.107 0.238301 180.062C0.234724 180.016 -0.0293531 179.921 0.0026974 179.879Z"/>
</mask>
<path d="M0.426733 180.662L-29.4895 249.437L0.426733 180.662ZM-73.0297 163.225C-74.7299 170.567 -75.3528 178.273 -74.7426 186.082L74.8016 174.397C75.4068 182.143 74.7888 189.786 73.103 197.066L-73.0297 163.225ZM-74.7426 186.082C-73.1255 206.778 -63.5353 222.24 -54.4868 231.86L54.7728 129.087C63.6843 138.561 73.1972 153.864 74.8016 174.397L-74.7426 186.082ZM-54.4868 231.86C-45.7181 241.182 -36.3113 246.47 -29.4895 249.437L30.3429 111.887C36.9276 114.751 46.141 119.91 54.7728 129.087L-54.4868 231.86ZM-29.4895 249.437C-26.8073 250.604 -24.2252 251.544 -21.7951 252.303L22.9246 109.124C25.2581 109.853 27.7479 110.758 30.3429 111.887L-29.4895 249.437ZM11.6839 106.301C17.2036 107.099 23.7185 108.679 30.6445 111.692L-29.1879 249.242C-22.1282 252.313 -15.4578 253.937 -9.7713 254.759L11.6839 106.301ZM30.6445 111.692C37.2808 114.579 46.5364 119.766 55.1982 128.974L-54.0614 231.748C-45.3225 241.038 -35.9578 246.298 -29.1879 249.242L30.6445 111.692ZM55.1982 128.974C53.1379 126.784 51.3955 125.205 50.8366 124.7C50.0567 123.995 49.4208 123.451 49.0856 123.166C48.4304 122.61 47.8968 122.177 47.8176 122.113C47.2135 121.622 47.9357 122.208 48.228 122.45C48.4368 122.623 50.1798 124.052 52.2533 126.044C53.1432 126.899 55.7252 129.402 58.6159 132.983C60.0351 134.742 62.739 138.239 65.4812 143.074C66.8973 145.571 68.7874 149.233 70.516 153.871C72.1875 158.355 74.3187 165.367 75.0104 174.219L-74.5338 185.904C-73.8419 194.759 -71.7099 201.774 -70.0371 206.262C-68.3072 210.903 -66.4152 214.569 -64.9968 217.07C-62.2501 221.914 -59.5396 225.42 -58.112 227.189C-55.2048 230.791 -52.5993 233.318 -51.6813 234.2C-49.5516 236.246 -47.7336 237.739 -47.4475 237.976C-47.078 238.282 -46.2764 238.932 -46.8155 238.494C-46.8622 238.456 -47.3669 238.047 -47.999 237.51C-48.3227 237.235 -48.9484 236.7 -49.7198 236.003C-50.2702 235.506 -52.0059 233.933 -54.0614 231.748L55.1982 128.974ZM75.0104 174.219C73.679 157.179 66.9323 144.956 62.8343 138.745C58.5279 132.219 54.1061 127.755 51.5784 125.381C46.6262 120.728 42.1497 117.832 40.8191 116.974C38.0912 115.217 34.8659 113.484 36.4848 114.382C36.6135 114.453 37.5675 114.98 38.7561 115.696C39.7521 116.295 42.4354 117.931 45.6263 120.374C47.2808 121.641 49.7956 123.674 52.6129 126.446C55.2382 129.029 59.6441 133.727 63.8348 140.52C67.9161 147.136 73.9373 159.214 74.8769 175.592C75.9231 193.828 70.2764 211.235 59.9175 224.992L-59.9121 134.766C-70.275 148.528 -75.9234 165.941 -74.8769 184.183C-73.937 200.567 -67.9134 212.652 -63.8278 219.274C-59.633 226.074 -55.2212 230.779 -52.5885 233.369C-49.7637 236.149 -47.24 238.189 -45.5753 239.464C-42.3641 241.923 -39.6556 243.575 -38.6317 244.191C-37.4152 244.924 -36.4304 245.467 -36.2705 245.556C-34.5892 246.489 -37.7498 244.791 -40.4281 243.065C-41.734 242.224 -46.1895 239.343 -51.1267 234.704C-53.6469 232.337 -58.0627 227.88 -62.3649 221.36C-66.4587 215.156 -73.2028 202.939 -74.5338 185.904L75.0104 174.219ZM-21.7951 252.303C20.2218 265.426 54.5219 240.349 67.6452 214.846L-65.7326 146.214C-52.759 121.001 -18.7801 96.098 22.9246 109.124L-21.7951 252.303ZM73.103 197.066C73.8326 193.916 82.2017 161.099 57.4061 131.61L-57.4008 228.147C-70.0432 213.112 -73.8716 196.827 -74.7258 185.795C-75.534 175.357 -73.9425 167.167 -73.0297 163.225L73.103 197.066Z" fill="#258D51" mask="url(#path-6-inside-4_11_2096)"/>
<defs>
<filter id="filter0_d_11_2096" x="94.061" y="0" width="458.939" height="512.519" filterUnits="userSpaceOnUse" color-interpolation-filters="sRGB">
<feFlood flood-opacity="0" result="BackgroundImageFix"/>
<feColorMatrix in="SourceAlpha" type="matrix" values="0 0 0 0 0 0 0 0 0 0 0 0 0 0 0 0 0 0 127 0" result="hardAlpha"/>
<feMorphology radius="3" operator="erode" in="SourceAlpha" result="effect1_dropShadow_11_2096"/>
<feOffset dy="8"/>
<feGaussianBlur stdDeviation="6.5"/>
<feComposite in2="hardAlpha" operator="out"/>
<feColorMatrix type="matrix" values="0 0 0 0 0 0 0 0 0 0 0 0 0 0 0 0 0 0 0.07 0"/>
<feBlend mode="normal" in2="BackgroundImageFix" result="effect1_dropShadow_11_2096"/>
<feBlend mode="normal" in="SourceGraphic" in2="effect1_dropShadow_11_2096" result="shape"/>
</filter>
</defs>
</svg>
