<svg width="74" height="61" viewBox="0 0 74 61" fill="none" xmlns="http://www.w3.org/2000/svg">
<g filter="url(#filter0_dd_9_879)">
<rect x="3" y="2.84082" width="68" height="53.3182" rx="8" fill="white"/>
</g>
<g clip-path="url(#clip0_9_879)">
<path d="M30.5467 32.3046L29.7397 35.317L26.7904 35.3794C25.909 33.7446 25.4091 31.8741 25.4091 29.8865C25.4091 27.9644 25.8765 26.1519 26.7051 24.5559H26.7057L29.3314 25.0373L30.4816 27.6472C30.2409 28.3491 30.1097 29.1025 30.1097 29.8865C30.1098 30.7373 30.2639 31.5525 30.5467 32.3046Z" fill="#FBBB00"/>
<path d="M48.3883 27.7207C48.5214 28.4219 48.5908 29.146 48.5908 29.886C48.5908 30.7159 48.5036 31.5253 48.3374 32.3061C47.7731 34.9631 46.2988 37.2832 44.2564 38.925L44.2557 38.9244L40.9485 38.7557L40.4805 35.8337C41.8357 35.0389 42.8948 33.7951 43.4527 32.3061H37.2547V27.7207H43.5431H48.3883Z" fill="#518EF8"/>
<path d="M44.2557 38.9249L44.2563 38.9255C42.27 40.5221 39.7467 41.4774 36.9999 41.4774C32.5858 41.4774 28.7481 39.0102 26.7904 35.3794L30.5466 32.3047C31.5254 34.9171 34.0455 36.7767 36.9999 36.7767C38.2698 36.7767 39.4595 36.4335 40.4804 35.8342L44.2557 38.9249Z" fill="#28B446"/>
<path d="M44.3985 20.9639L40.6435 24.038C39.587 23.3776 38.338 22.9961 37 22.9961C33.9787 22.9961 31.4115 24.941 30.4817 27.6471L26.7058 24.5558H26.7051C28.6342 20.8365 32.5203 18.2954 37 18.2954C39.8124 18.2954 42.3911 19.2972 44.3985 20.9639Z" fill="#F14336"/>
</g>
<defs>
<filter id="filter0_dd_9_879" x="0" y="0.84082" width="74" height="59.3181" filterUnits="userSpaceOnUse" color-interpolation-filters="sRGB">
<feFlood flood-opacity="0" result="BackgroundImageFix"/>
<feColorMatrix in="SourceAlpha" type="matrix" values="0 0 0 0 0 0 0 0 0 0 0 0 0 0 0 0 0 0 127 0" result="hardAlpha"/>
<feOffset dy="1"/>
<feGaussianBlur stdDeviation="1.5"/>
<feColorMatrix type="matrix" values="0 0 0 0 0.196078 0 0 0 0 0.196078 0 0 0 0 0.278431 0 0 0 0.1 0"/>
<feBlend mode="normal" in2="BackgroundImageFix" result="effect1_dropShadow_9_879"/>
<feColorMatrix in="SourceAlpha" type="matrix" values="0 0 0 0 0 0 0 0 0 0 0 0 0 0 0 0 0 0 127 0" result="hardAlpha"/>
<feOffset/>
<feGaussianBlur stdDeviation="0.5"/>
<feColorMatrix type="matrix" values="0 0 0 0 0.0470588 0 0 0 0 0.101961 0 0 0 0 0.294118 0 0 0 0.2 0"/>
<feBlend mode="normal" in2="effect1_dropShadow_9_879" result="effect2_dropShadow_9_879"/>
<feBlend mode="normal" in="SourceGraphic" in2="effect2_dropShadow_9_879" result="shape"/>
</filter>
<clipPath id="clip0_9_879">
<rect width="23.1818" height="23.1818" fill="white" transform="translate(25.4091 18.2954)"/>
</clipPath>
</defs>
</svg>
