<svg width="43" height="41" viewBox="0 0 43 41" fill="none" xmlns="http://www.w3.org/2000/svg">
<ellipse cx="21.0273" cy="20.2713" rx="20.9882" ry="20.1775" fill="#33724E"/>
<g clip-path="url(#clip0_118_1738)">
<mask id="mask0_118_1738" style="mask-type:alpha" maskUnits="userSpaceOnUse" x="9" y="9" width="23" height="21">
<path fill-rule="evenodd" clip-rule="evenodd" d="M16.1025 27.9262C16.1025 26.9487 16.9268 26.1562 17.9436 26.1562C18.9604 26.1562 19.7847 26.9487 19.7847 27.9262C19.7847 28.9037 18.9604 29.6962 17.9436 29.6962C16.9268 29.6962 16.1025 28.9037 16.1025 27.9262Z" fill="#7A869A"/>
<path fill-rule="evenodd" clip-rule="evenodd" d="M26.2285 27.9262C26.2285 26.9487 27.0528 26.1562 28.0696 26.1562C29.0864 26.1562 29.9107 26.9487 29.9107 27.9262C29.9107 28.9037 29.0864 29.6962 28.0696 29.6962C27.0528 29.6962 26.2285 28.9037 26.2285 27.9262Z" fill="#7A869A"/>
<path fill-rule="evenodd" clip-rule="evenodd" d="M9.65869 10.2268C9.65869 9.73802 10.0708 9.3418 10.5792 9.3418H14.2614C14.7001 9.3418 15.0779 9.63949 15.164 10.0531L15.9371 13.7667H30.831C31.1054 13.7667 31.3654 13.8843 31.5403 14.0876C31.7152 14.2908 31.7867 14.5584 31.7353 14.8175L30.2611 22.2491C30.1348 22.8602 29.789 23.4092 29.2841 23.7999C28.7817 24.1887 28.1538 24.3962 27.5091 24.3865H18.5774C17.9328 24.3962 17.3049 24.1887 16.8025 23.7999C16.2978 23.4094 15.9521 22.8607 15.8257 22.2498C15.8256 22.2496 15.8257 22.2501 15.8257 22.2498L14.2879 14.8634C14.2816 14.8389 14.2765 14.8141 14.2724 14.7889L13.5068 11.1118H10.5792C10.0708 11.1118 9.65869 10.7155 9.65869 10.2268ZM16.3056 15.5367L17.6313 21.9043C17.6734 22.108 17.7887 22.291 17.957 22.4212C18.1253 22.5515 18.3358 22.6206 18.5518 22.6167L18.5695 22.6165H27.5171L27.5347 22.6167C27.7507 22.6206 27.9613 22.5515 28.1296 22.4212C28.2971 22.2916 28.4121 22.1097 28.4547 21.9071L29.7184 15.5367H16.3056Z" fill="#7A869A"/>
</mask>
<g mask="url(#mask0_118_1738)">
<rect x="9.65869" y="9.3418" width="22.0929" height="21.2395" fill="black"/>
</g>
</g>
<defs>
<clipPath id="clip0_118_1738">
<rect width="22.0929" height="21.2395" fill="white" transform="translate(9.65869 9.3418)"/>
</clipPath>
</defs>
</svg>
