<svg width="35" height="33" viewBox="0 0 35 33" fill="none" xmlns="http://www.w3.org/2000/svg">
<ellipse cx="17.4435" cy="16.5" rx="16.6437" ry="16.5" fill="#446622" fill-opacity="0.2"/>
<path d="M33.8371 16.5C33.8371 25.4726 26.4995 32.75 17.4435 32.75C8.38744 32.75 1.0498 25.4726 1.0498 16.5C1.0498 7.52741 8.38744 0.25 17.4435 0.25C26.4995 0.25 33.8371 7.52741 33.8371 16.5Z" stroke="#446622" stroke-opacity="0.2" stroke-width="0.5"/>
<path d="M19.3706 10.2642H15.5157C11.9911 10.2642 9.12744 13.0212 9.12744 16.4062C9.12744 19.7911 11.3303 22.166 16.7272 24.5682C16.8649 24.6228 16.975 24.6501 17.1127 24.6501C17.3055 24.6501 17.4707 24.5955 17.6359 24.4863C17.9112 24.3225 18.0764 24.0222 18.0764 23.6947V22.5209H19.3706C22.8951 22.5209 25.7864 19.7638 25.7864 16.3789C25.7864 12.9939 22.8951 10.2642 19.3706 10.2642ZM19.3706 21.3471H17.7736C17.2504 21.3471 16.8098 21.7838 16.8098 22.3025V23.3125C12.1563 21.1833 10.339 19.2178 10.339 16.4335C10.339 13.731 12.652 11.5199 15.5157 11.5199H19.3706C22.2068 11.5199 24.5473 13.731 24.5473 16.4335C24.5473 19.1359 22.2068 21.3471 19.3706 21.3471Z" fill="#33724E"/>
<path d="M13.9463 15.8057C13.5883 15.8057 13.313 16.0786 13.313 16.4335C13.313 16.7884 13.5883 17.0614 13.9463 17.0614C14.3043 17.0614 14.5796 16.7884 14.5796 16.4335C14.5796 16.0786 14.3043 15.8057 13.9463 15.8057Z" fill="#33724E"/>
<path d="M17.4434 15.8057C17.0854 15.8057 16.8101 16.0786 16.8101 16.4335C16.8101 16.7884 17.0854 17.0614 17.4434 17.0614C17.7738 17.0614 18.0767 16.7884 18.0767 16.4335C18.0767 16.0786 17.7738 15.8057 17.4434 15.8057Z" fill="#33724E"/>
<path d="M20.94 15.8057C20.582 15.8057 20.3066 16.0786 20.3066 16.4335C20.3066 16.7884 20.582 17.0614 20.94 17.0614C21.2979 17.0614 21.5733 16.7884 21.5733 16.4335C21.5733 16.0786 21.2704 15.8057 20.94 15.8057Z" fill="#33724E"/>
<path d="M32.1078 4.85294C32.1078 6.97271 30.372 8.70588 28.2126 8.70588C26.0531 8.70588 24.3174 6.97271 24.3174 4.85294C24.3174 2.73317 26.0531 1 28.2126 1C30.372 1 32.1078 2.73317 32.1078 4.85294Z" fill="#DC3545" stroke="white" stroke-width="2"/>
</svg>
