<svg width="29" height="34" viewBox="0 0 29 34" fill="none" xmlns="http://www.w3.org/2000/svg">
<ellipse cx="14.4061" cy="17" rx="14.2899" ry="17" fill="#446622" fill-opacity="0.2"/>
<path d="M28.4459 17C28.4459 26.2932 22.1211 33.75 14.4061 33.75C6.69099 33.75 0.366211 26.2932 0.366211 17C0.366211 7.70679 6.69099 0.25 14.4061 0.25C22.1211 0.25 28.4459 7.70679 28.4459 17Z" stroke="#446622" stroke-opacity="0.2" stroke-width="0.5"/>
<g clip-path="url(#clip0_342_20)">
<path d="M16.0612 10.5752H12.7514C9.7253 10.5752 7.2666 13.4158 7.2666 16.9033C7.2666 20.3908 9.15791 22.8377 13.7916 25.3127C13.9098 25.3689 14.0044 25.3971 14.1226 25.3971C14.2881 25.3971 14.4299 25.3408 14.5718 25.2283C14.8082 25.0596 14.95 24.7502 14.95 24.4127V23.2033H16.0612C19.0873 23.2033 21.5696 20.3627 21.5696 16.8752C21.5696 13.3877 19.0873 10.5752 16.0612 10.5752ZM16.0612 21.9939H14.69C14.2408 21.9939 13.8625 22.4439 13.8625 22.9783V24.0189C9.86714 21.8252 8.30682 19.8002 8.30682 16.9314C8.30682 14.1471 10.2927 11.8689 12.7514 11.8689H16.0612C18.4962 11.8689 20.5057 14.1471 20.5057 16.9314C20.5057 19.7158 18.4962 21.9939 16.0612 21.9939Z" fill="#33724E"/>
<path d="M11.4036 16.2847C11.0963 16.2847 10.8599 16.5659 10.8599 16.9315C10.8599 17.2972 11.0963 17.5784 11.4036 17.5784C11.7109 17.5784 11.9474 17.2972 11.9474 16.9315C11.9474 16.5659 11.7109 16.2847 11.4036 16.2847Z" fill="#33724E"/>
<path d="M14.4061 16.2847C14.0987 16.2847 13.8623 16.5659 13.8623 16.9315C13.8623 17.2972 14.0987 17.5784 14.4061 17.5784C14.6897 17.5784 14.9498 17.2972 14.9498 16.9315C14.9498 16.5659 14.6897 16.2847 14.4061 16.2847Z" fill="#33724E"/>
<path d="M17.4085 16.2847C17.1012 16.2847 16.8647 16.5659 16.8647 16.9315C16.8647 17.2972 17.1012 17.5784 17.4085 17.5784C17.7158 17.5784 17.9522 17.2972 17.9522 16.9315C17.9522 16.5659 17.6922 16.2847 17.4085 16.2847Z" fill="#33724E"/>
</g>
<path d="M26.8555 5C26.8555 7.37888 25.2659 9 23.6526 9C22.0394 9 20.4497 7.37888 20.4497 5C20.4497 2.62112 22.0394 1 23.6526 1C25.2659 1 26.8555 2.62112 26.8555 5Z" fill="#DC3545" stroke="white" stroke-width="2"/>
<defs>
<clipPath id="clip0_342_20">
<rect width="15.1304" height="18" fill="white" transform="translate(6.84082 9)"/>
</clipPath>
</defs>
</svg>
