<svg width="25" height="27" viewBox="0 0 25 27" fill="none" xmlns="http://www.w3.org/2000/svg">
<path d="M9.05873 23.5389V19.8588C9.05871 18.9228 9.82851 18.1622 10.7823 18.1559H14.2759C15.2343 18.1559 16.0111 18.9183 16.0111 19.8588V19.8588V23.5503C16.0109 24.345 16.6573 24.9946 17.4668 25.0132H19.7959C22.1178 25.0132 24 23.166 24 20.8874V20.8874V10.4186C23.9876 9.52218 23.5587 8.6804 22.8354 8.13282L14.8699 1.83554C13.4744 0.739063 11.4907 0.739063 10.0952 1.83554L2.16456 8.14425C1.43852 8.68961 1.00894 9.53278 1 10.43V20.8874C1 23.166 2.88222 25.0132 5.20405 25.0132H7.53316C8.36285 25.0132 9.03544 24.3531 9.03544 23.5389V23.5389" stroke="#92929D" stroke-width="2" stroke-linecap="round" stroke-linejoin="round"/>
</svg>
