<svg width="24" height="25" viewBox="0 0 24 25" fill="none" xmlns="http://www.w3.org/2000/svg">
<path fill-rule="evenodd" clip-rule="evenodd" d="M9.87651 15.2195C6.03251 15.2195 2.74951 15.8005 2.74951 18.1285C2.74951 20.4565 6.01251 21.0585 9.87651 21.0585C13.7215 21.0585 17.0035 20.4765 17.0035 18.1495C17.0035 15.8225 13.7415 15.2195 9.87651 15.2195Z" stroke="#ADB5BD" stroke-width="2" stroke-linecap="round" stroke-linejoin="round"/>
<path fill-rule="evenodd" clip-rule="evenodd" d="M9.8766 11.8992C12.3996 11.8992 14.4446 9.85418 14.4446 7.33118C14.4446 4.80818 12.3996 2.76318 9.8766 2.76318C7.3546 2.76318 5.3096 4.80818 5.3096 7.33118C5.3006 9.84518 7.3306 11.8902 9.8456 11.8992H9.8766Z" stroke="#ADB5BD" stroke-width="2" stroke-linecap="round" stroke-linejoin="round"/>
<path d="M19.2036 8.68237V12.6924" stroke="#ADB5BD" stroke-width="2" stroke-linecap="round" stroke-linejoin="round"/>
<path d="M21.2497 10.6873H17.1597" stroke="#ADB5BD" stroke-width="2" stroke-linecap="round" stroke-linejoin="round"/>
</svg>
