<svg width="24" height="25" viewBox="0 0 24 25" fill="none" xmlns="http://www.w3.org/2000/svg">
<path d="M19.3248 9.48145C19.3248 9.48145 18.7818 16.2164 18.4668 19.0534C18.3168 20.4084 17.4798 21.2024 16.1088 21.2274C13.4998 21.2744 10.8878 21.2774 8.27979 21.2224C6.96079 21.1954 6.13779 20.3914 5.99079 19.0604C5.67379 16.1984 5.13379 9.48145 5.13379 9.48145" stroke="#ADB5BD" stroke-width="2" stroke-linecap="round" stroke-linejoin="round"/>
<path d="M20.708 6.25293H3.75" stroke="#ADB5BD" stroke-width="2" stroke-linecap="round" stroke-linejoin="round"/>
<path d="M17.4406 6.25292C16.6556 6.25292 15.9796 5.69792 15.8256 4.92892L15.5826 3.71292C15.4326 3.15192 14.9246 2.76392 14.3456 2.76392H10.1126C9.53358 2.76392 9.02558 3.15192 8.87558 3.71292L8.63258 4.92892C8.47858 5.69792 7.80258 6.25292 7.01758 6.25292" stroke="#ADB5BD" stroke-width="2" stroke-linecap="round" stroke-linejoin="round"/>
</svg>
