<svg width="24" height="25" viewBox="0 0 24 25" fill="none" xmlns="http://www.w3.org/2000/svg">
<path d="M11.4925 2.80225H7.75349C4.67849 2.80225 2.75049 4.97925 2.75049 8.06125V16.3752C2.75049 19.4572 4.66949 21.6342 7.75349 21.6342H16.5775C19.6625 21.6342 21.5815 19.4572 21.5815 16.3752V12.3472" stroke="#0048B3" stroke-width="2" stroke-linecap="round" stroke-linejoin="round"/>
<path fill-rule="evenodd" clip-rule="evenodd" d="M8.82812 10.9342L16.3011 3.46117C17.2321 2.53117 18.7411 2.53117 19.6721 3.46117L20.8891 4.67817C21.8201 5.60917 21.8201 7.11917 20.8891 8.04917L13.3801 15.5582C12.9731 15.9652 12.4211 16.1942 11.8451 16.1942H8.09912L8.19312 12.4142C8.20712 11.8582 8.43412 11.3282 8.82812 10.9342Z" stroke="#0048B3" stroke-width="2" stroke-linecap="round" stroke-linejoin="round"/>
<path d="M15.1655 4.61572L19.7315 9.18172" stroke="#0048B3" stroke-width="2" stroke-linecap="round" stroke-linejoin="round"/>
</svg>
