<svg width="32" height="32" viewBox="0 0 32 32" fill="none" xmlns="http://www.w3.org/2000/svg">
<g filter="url(#filter0_dii_306_370)">
<rect x="4" y="2" width="24" height="24" rx="12" fill="white"/>
<path d="M16 18.6668C18.5773 18.6668 20.6667 16.5775 20.6667 14.0002C20.6667 11.4228 18.5773 9.3335 16 9.3335C13.4227 9.3335 11.3333 11.4228 11.3333 14.0002C11.3333 16.5775 13.4227 18.6668 16 18.6668Z" fill="#33724E"/>
<path d="M16 21.3065C15.6333 21.3065 15.3333 21.0332 15.3333 20.6665V20.6132C15.3333 20.2465 15.6333 19.9465 16 19.9465C16.3667 19.9465 16.6667 20.2465 16.6667 20.6132C16.6667 20.9798 16.3667 21.3065 16 21.3065ZM20.76 19.4265C20.5867 19.4265 20.42 19.3598 20.2867 19.2332L20.2 19.1465C19.94 18.8865 19.94 18.4665 20.2 18.2065C20.46 17.9465 20.88 17.9465 21.14 18.2065L21.2267 18.2932C21.4867 18.5532 21.4867 18.9732 21.2267 19.2332C21.1 19.3598 20.9333 19.4265 20.76 19.4265ZM11.24 19.4265C11.0667 19.4265 10.9 19.3598 10.7667 19.2332C10.5067 18.9732 10.5067 18.5532 10.7667 18.2932L10.8533 18.2065C11.1133 17.9465 11.5333 17.9465 11.7933 18.2065C12.0533 18.4665 12.0533 18.8865 11.7933 19.1465L11.7067 19.2332C11.58 19.3598 11.4067 19.4265 11.24 19.4265ZM22.6667 14.6665H22.6133C22.2467 14.6665 21.9467 14.3665 21.9467 13.9998C21.9467 13.6332 22.2467 13.3332 22.6133 13.3332C22.98 13.3332 23.3067 13.6332 23.3067 13.9998C23.3067 14.3665 23.0333 14.6665 22.6667 14.6665ZM9.38667 14.6665H9.33334C8.96667 14.6665 8.66667 14.3665 8.66667 13.9998C8.66667 13.6332 8.96667 13.3332 9.33334 13.3332C9.70001 13.3332 10.0267 13.6332 10.0267 13.9998C10.0267 14.3665 9.75334 14.6665 9.38667 14.6665ZM20.6733 9.99317C20.5 9.99317 20.3333 9.9265 20.2 9.79984C19.94 9.53984 19.94 9.11984 20.2 8.85984L20.2867 8.77317C20.5467 8.51317 20.9667 8.51317 21.2267 8.77317C21.4867 9.03317 21.4867 9.45317 21.2267 9.71317L21.14 9.79984C21.0133 9.9265 20.8467 9.99317 20.6733 9.99317ZM11.3267 9.99317C11.1533 9.99317 10.9867 9.9265 10.8533 9.79984L10.7667 9.7065C10.5067 9.4465 10.5067 9.0265 10.7667 8.7665C11.0267 8.5065 11.4467 8.5065 11.7067 8.7665L11.7933 8.85317C12.0533 9.11317 12.0533 9.53317 11.7933 9.79317C11.6667 9.9265 11.4933 9.99317 11.3267 9.99317ZM16 8.0265C15.6333 8.0265 15.3333 7.75317 15.3333 7.3865V7.33317C15.3333 6.9665 15.6333 6.6665 16 6.6665C16.3667 6.6665 16.6667 6.9665 16.6667 7.33317C16.6667 7.69984 16.3667 8.0265 16 8.0265Z" fill="#33724E"/>
</g>
<defs>
<filter id="filter0_dii_306_370" x="0" y="0" width="32" height="32" filterUnits="userSpaceOnUse" color-interpolation-filters="sRGB">
<feFlood flood-opacity="0" result="BackgroundImageFix"/>
<feColorMatrix in="SourceAlpha" type="matrix" values="0 0 0 0 0 0 0 0 0 0 0 0 0 0 0 0 0 0 127 0" result="hardAlpha"/>
<feOffset dy="2"/>
<feGaussianBlur stdDeviation="2"/>
<feComposite in2="hardAlpha" operator="out"/>
<feColorMatrix type="matrix" values="0 0 0 0 0 0 0 0 0 0 0 0 0 0 0 0 0 0 0.2 0"/>
<feBlend mode="multiply" in2="BackgroundImageFix" result="effect1_dropShadow_306_370"/>
<feBlend mode="normal" in="SourceGraphic" in2="effect1_dropShadow_306_370" result="shape"/>
<feColorMatrix in="SourceAlpha" type="matrix" values="0 0 0 0 0 0 0 0 0 0 0 0 0 0 0 0 0 0 127 0" result="hardAlpha"/>
<feOffset dy="-1"/>
<feGaussianBlur stdDeviation="0.5"/>
<feComposite in2="hardAlpha" operator="arithmetic" k2="-1" k3="1"/>
<feColorMatrix type="matrix" values="0 0 0 0 0 0 0 0 0 0 0 0 0 0 0 0 0 0 0.1 0"/>
<feBlend mode="multiply" in2="shape" result="effect2_innerShadow_306_370"/>
<feColorMatrix in="SourceAlpha" type="matrix" values="0 0 0 0 0 0 0 0 0 0 0 0 0 0 0 0 0 0 127 0" result="hardAlpha"/>
<feOffset dy="2"/>
<feGaussianBlur stdDeviation="1"/>
<feComposite in2="hardAlpha" operator="arithmetic" k2="-1" k3="1"/>
<feColorMatrix type="matrix" values="0 0 0 0 1 0 0 0 0 1 0 0 0 0 1 0 0 0 1 0"/>
<feBlend mode="normal" in2="effect2_innerShadow_306_370" result="effect3_innerShadow_306_370"/>
</filter>
</defs>
</svg>
