<svg width="24" height="25" viewBox="0 0 24 25" fill="none" xmlns="http://www.w3.org/2000/svg">
<path d="M6.37622 1.01318H17.6225C19.3408 1.01318 20.6594 1.61285 21.5534 2.57297C22.4549 3.54114 23 4.95809 23 6.71502V17.3113C23 19.0683 22.455 20.4852 21.5533 21.4533C20.6592 22.4135 19.3403 23.0132 17.6212 23.0132H6.37622C4.65788 23.0132 3.33967 22.4135 2.44601 21.4535C1.54481 20.4854 1 19.0684 1 17.3113V6.71502C1 4.9592 1.54699 3.54207 2.44994 2.57334C3.34562 1.61242 4.66437 1.01318 6.37622 1.01318Z" stroke="#92929D" stroke-width="2" stroke-linecap="round" stroke-linejoin="round"/>
<path d="M8 9.01318C8 8.22206 8.2346 7.4487 8.67412 6.7909C9.11365 6.13311 9.73836 5.62042 10.4693 5.31767C11.2002 5.01492 12.0044 4.9357 12.7804 5.09004C13.5563 5.24439 14.269 5.62535 14.8284 6.18476C15.3878 6.74417 15.7688 7.4569 15.9231 8.23282C16.0775 9.00875 15.9983 9.81302 15.6955 10.5439C15.3928 11.2748 14.8801 11.8995 14.2223 12.3391C13.5645 12.7786 12.7911 13.0132 12 13.0132L12 15.5132M12 18.0132V18.0632" stroke="#92929D" stroke-width="2" stroke-linecap="round"/>
</svg>
