<svg width="17" height="20" viewBox="0 0 17 20" fill="none" xmlns="http://www.w3.org/2000/svg">
<path fill-rule="evenodd" clip-rule="evenodd" d="M7.90157 3.33317C5.20985 3.33317 3.02778 5.94484 3.02778 9.1665C3.02778 12.3882 5.20985 14.9998 7.90157 14.9998C10.5933 14.9998 12.7754 12.3882 12.7754 9.1665C12.7754 5.94484 10.5933 3.33317 7.90157 3.33317ZM1.63527 9.1665C1.63527 5.02437 4.44079 1.6665 7.90157 1.6665C11.3624 1.6665 14.1679 5.02437 14.1679 9.1665C14.1679 13.3086 11.3624 16.6665 7.90157 16.6665C4.44079 16.6665 1.63527 13.3086 1.63527 9.1665Z" fill="#33724E"/>
<path fill-rule="evenodd" clip-rule="evenodd" d="M11.3431 13.2856C11.615 12.9601 12.0558 12.9601 12.3277 13.2856L15.3565 16.9106C15.6284 17.236 15.6284 17.7637 15.3565 18.0891C15.0846 18.4145 14.6437 18.4145 14.3718 18.0891L11.3431 14.4641C11.0712 14.1387 11.0712 13.611 11.3431 13.2856Z" fill="#33724E"/>
</svg>
