<svg width="18" height="24" viewBox="0 0 18 24" fill="none" xmlns="http://www.w3.org/2000/svg">
<path fill-rule="evenodd" clip-rule="evenodd" d="M8.12564 4.5C5.41757 4.5 3.22226 7.43813 3.22226 11.0625C3.22226 14.6869 5.41757 17.625 8.12564 17.625C10.8337 17.625 13.029 14.6869 13.029 11.0625C13.029 7.43813 10.8337 4.5 8.12564 4.5ZM1.82129 11.0625C1.82129 6.4026 4.64384 2.625 8.12564 2.625C11.6074 2.625 14.43 6.4026 14.43 11.0625C14.43 15.7224 11.6074 19.5 8.12564 19.5C4.64384 19.5 1.82129 15.7224 1.82129 11.0625Z" fill="#33724E"/>
<path fill-rule="evenodd" clip-rule="evenodd" d="M11.588 15.6965C11.8615 15.3303 12.3051 15.3303 12.5786 15.6965L15.6257 19.7746C15.8993 20.1407 15.8993 20.7343 15.6257 21.1004C15.3522 21.4665 14.9086 21.4665 14.6351 21.1004L11.588 17.0223C11.3144 16.6562 11.3144 16.0626 11.588 15.6965Z" fill="#33724E"/>
</svg>
