<svg width="18" height="20" viewBox="0 0 18 20" fill="none" xmlns="http://www.w3.org/2000/svg">
<path fill-rule="evenodd" clip-rule="evenodd" d="M8.12564 3.33317C5.41757 3.33317 3.22226 5.94484 3.22226 9.1665C3.22226 12.3882 5.41757 14.9998 8.12564 14.9998C10.8337 14.9998 13.029 12.3882 13.029 9.1665C13.029 5.94484 10.8337 3.33317 8.12564 3.33317ZM1.82129 9.1665C1.82129 5.02437 4.64384 1.6665 8.12564 1.6665C11.6074 1.6665 14.43 5.02437 14.43 9.1665C14.43 13.3086 11.6074 16.6665 8.12564 16.6665C4.64384 16.6665 1.82129 13.3086 1.82129 9.1665Z" fill="#33724E"/>
<path fill-rule="evenodd" clip-rule="evenodd" d="M11.5882 13.2856C11.8618 12.9601 12.3053 12.9601 12.5789 13.2856L15.626 16.9106C15.8995 17.236 15.8995 17.7637 15.626 18.0891C15.3524 18.4145 14.9089 18.4145 14.6353 18.0891L11.5882 14.4641C11.3147 14.1387 11.3147 13.611 11.5882 13.2856Z" fill="#33724E"/>
</svg>
