<svg width="32" height="32" viewBox="0 0 32 32" fill="none" xmlns="http://www.w3.org/2000/svg">
<path d="M0 8.42105C0 3.77023 3.77023 0 8.42105 0H23.5789C28.2298 0 32 3.77023 32 8.42105V23.5789C32 28.2298 28.2298 32 23.5789 32H8.42105C3.77023 32 0 28.2298 0 23.5789V8.42105Z" fill="#33724E"/>
<g filter="url(#filter0_d_101_3675)">
<path d="M8.42126 8.42152C8.42126 7.49135 9.17531 6.7373 10.1055 6.7373C11.0356 6.7373 11.7897 7.49135 11.7897 8.42152V23.5794C11.7897 24.5096 11.0356 25.2636 10.1055 25.2636C9.17531 25.2636 8.42126 24.5096 8.42126 23.5794V8.42152Z" fill="white"/>
</g>
<g opacity="0.9" filter="url(#filter1_d_101_3675)">
<path d="M14.7369 15.1578C14.7369 14.2277 15.491 13.4736 16.4211 13.4736C17.3513 13.4736 18.1054 14.2277 18.1054 15.1578V23.5789C18.1054 24.5091 17.3513 25.2631 16.4211 25.2631C15.491 25.2631 14.7369 24.5091 14.7369 23.5789V15.1578Z" fill="white"/>
</g>
<g opacity="0.7" filter="url(#filter2_d_101_3675)">
<path d="M21.0522 10.9474C21.0522 10.0172 21.8063 9.26318 22.7365 9.26318C23.6666 9.26318 24.4207 10.0172 24.4207 10.9474V23.579C24.4207 24.5091 23.6666 25.2632 22.7365 25.2632C21.8063 25.2632 21.0522 24.5091 21.0522 23.579V10.9474Z" fill="white"/>
</g>
<defs>
<filter id="filter0_d_101_3675" x="7.42126" y="6.2373" width="5.36841" height="20.5264" filterUnits="userSpaceOnUse" color-interpolation-filters="sRGB">
<feFlood flood-opacity="0" result="BackgroundImageFix"/>
<feColorMatrix in="SourceAlpha" type="matrix" values="0 0 0 0 0 0 0 0 0 0 0 0 0 0 0 0 0 0 127 0" result="hardAlpha"/>
<feOffset dy="0.5"/>
<feGaussianBlur stdDeviation="0.5"/>
<feComposite in2="hardAlpha" operator="out"/>
<feColorMatrix type="matrix" values="0 0 0 0 0 0 0 0 0 0 0 0 0 0 0 0 0 0 0.12 0"/>
<feBlend mode="normal" in2="BackgroundImageFix" result="effect1_dropShadow_101_3675"/>
<feBlend mode="normal" in="SourceGraphic" in2="effect1_dropShadow_101_3675" result="shape"/>
</filter>
<filter id="filter1_d_101_3675" x="13.7369" y="12.9736" width="5.36841" height="13.7896" filterUnits="userSpaceOnUse" color-interpolation-filters="sRGB">
<feFlood flood-opacity="0" result="BackgroundImageFix"/>
<feColorMatrix in="SourceAlpha" type="matrix" values="0 0 0 0 0 0 0 0 0 0 0 0 0 0 0 0 0 0 127 0" result="hardAlpha"/>
<feOffset dy="0.5"/>
<feGaussianBlur stdDeviation="0.5"/>
<feComposite in2="hardAlpha" operator="out"/>
<feColorMatrix type="matrix" values="0 0 0 0 0 0 0 0 0 0 0 0 0 0 0 0 0 0 0.12 0"/>
<feBlend mode="normal" in2="BackgroundImageFix" result="effect1_dropShadow_101_3675"/>
<feBlend mode="normal" in="SourceGraphic" in2="effect1_dropShadow_101_3675" result="shape"/>
</filter>
<filter id="filter2_d_101_3675" x="20.0522" y="8.76318" width="5.36841" height="18" filterUnits="userSpaceOnUse" color-interpolation-filters="sRGB">
<feFlood flood-opacity="0" result="BackgroundImageFix"/>
<feColorMatrix in="SourceAlpha" type="matrix" values="0 0 0 0 0 0 0 0 0 0 0 0 0 0 0 0 0 0 127 0" result="hardAlpha"/>
<feOffset dy="0.5"/>
<feGaussianBlur stdDeviation="0.5"/>
<feComposite in2="hardAlpha" operator="out"/>
<feColorMatrix type="matrix" values="0 0 0 0 0 0 0 0 0 0 0 0 0 0 0 0 0 0 0.12 0"/>
<feBlend mode="normal" in2="BackgroundImageFix" result="effect1_dropShadow_101_3675"/>
<feBlend mode="normal" in="SourceGraphic" in2="effect1_dropShadow_101_3675" result="shape"/>
</filter>
</defs>
</svg>
