<svg width="20" height="24" viewBox="0 0 20 24" fill="none" xmlns="http://www.w3.org/2000/svg">
<path fill-rule="evenodd" clip-rule="evenodd" d="M18 0.980469H2C0.89543 0.980469 0 1.98616 0 3.22675V21.197C0 22.4376 0.89543 23.4433 2 23.4433L10 23.4433V14.9867H7V11.8155H10V10.1125C10 6.88845 11.4897 5.47303 13.925 5.47303C15.0684 5.47303 15.6836 5.56448 15.9825 5.6089L16 5.61151V8.64425H14.339C13.3053 8.64425 13 9.24467 13 10.4603V11.8155H15.9741L15.5629 14.9867H13V23.4433L18 23.4433C19.1046 23.4433 20 22.4376 20 21.197V3.22675C20 1.98616 19.1046 0.980469 18 0.980469Z" fill="#304659"/>
</svg>
