<svg width="20" height="24" viewBox="0 0 20 24" fill="none" xmlns="http://www.w3.org/2000/svg">
<path fill-rule="evenodd" clip-rule="evenodd" d="M6 0.980469H14C17.3137 0.980469 20 3.99755 20 7.71931V16.7044C20 20.4262 17.3137 23.4433 14 23.4433H6C2.68629 23.4433 0 20.4262 0 16.7044V7.71931C0 3.99755 2.68629 0.980469 6 0.980469ZM16 4.34989C16.5 4.34989 17 4.91146 17 5.47303C17 6.0346 16.5 6.59617 16 6.59617C15.5 6.59617 15 6.0346 15 5.47303C15 4.91146 15.5 4.34989 16 4.34989ZM15 12.2119C15 9.11481 12.7575 6.59617 10 6.59617C7.2425 6.59617 5 9.11481 5 12.2119C5 15.3089 7.2425 17.8276 10 17.8276C12.7575 17.8276 15 15.3089 15 12.2119ZM10 8.84245C8.34315 8.84245 7 10.351 7 12.2119C7 14.0728 8.34315 15.5813 10 15.5813C11.6569 15.5813 13 14.0728 13 12.2119C13 10.351 11.6569 8.84245 10 8.84245Z" fill="#304659"/>
</svg>
