<svg width="20" height="22" viewBox="0 0 20 22" fill="none" xmlns="http://www.w3.org/2000/svg">
<path fill-rule="evenodd" clip-rule="evenodd" d="M18 0.168091H2C0.89543 0.168091 0 1.11207 0 2.27653V19.1441C0 20.3085 0.89543 21.2525 2 21.2525H18C19.1046 21.2525 20 20.3085 20 19.1441V2.27653C20 1.11207 19.1046 0.168091 18 0.168091ZM4 4.97959C4 5.88986 4.70032 6.6294 5.56637 6.6294C6.4297 6.6294 7.13184 5.88986 7.13184 4.97959C7.13184 4.07028 6.4297 3.33075 5.56637 3.33075C4.70123 3.33075 4 4.06933 4 4.97959ZM4.25044 17.0356H6.93695V7.93101H4.25044V17.0356ZM17 17.0356H14.3153V12.608C14.3153 11.5519 14.2971 10.1937 12.9192 10.1937C11.5213 10.1937 11.3064 11.3438 11.3064 12.5313V17.0356H8.62172V7.93101H11.1989V9.17508H11.2354C11.5942 8.45952 12.4703 7.70464 13.7771 7.70464C16.4973 7.70464 17 9.59041 17 12.0421V17.0356Z" fill="#304659"/>
</svg>
