<svg width="20" height="22" viewBox="0 0 20 22" fill="none" xmlns="http://www.w3.org/2000/svg">
<path fill-rule="evenodd" clip-rule="evenodd" d="M18 0.168091H2C0.89543 0.168091 0 1.11207 0 2.27653V19.1441C0 20.3085 0.89543 21.2525 2 21.2525H18C19.1046 21.2525 20 20.3085 20 19.1441V2.27653C20 1.11207 19.1046 0.168091 18 0.168091ZM15.3502 6.74575C15.9312 6.67495 16.4847 6.51799 17 6.28473C16.615 6.87144 16.1277 7.3868 15.5661 7.80007C15.5715 7.92576 15.5742 8.05199 15.5742 8.17877C15.5742 12.0475 12.686 16.5085 7.40283 16.5085C5.78051 16.5085 4.27126 16.0239 3 15.1935C3.22507 15.2209 3.45391 15.2346 3.68544 15.2346C5.03154 15.2346 6.26995 14.7665 7.25261 13.9811C5.99588 13.9575 4.93516 13.1106 4.56956 11.9477C4.74455 11.9811 4.92493 11.9998 5.10961 11.9998C5.37183 11.9998 5.62598 11.9641 5.86666 11.8972C4.55232 11.6288 3.56267 10.4455 3.56267 9.02673V8.98996C3.94981 9.20894 4.39295 9.34066 4.86354 9.35603C4.09303 8.83134 3.58636 7.93509 3.58636 6.91974C3.58636 6.38242 3.72797 5.87969 3.97458 5.4472C5.39175 7.21885 7.50783 8.38459 9.89474 8.50643C9.84628 8.29293 9.82043 8.06901 9.82043 7.83959C9.82043 6.22326 11.1062 4.91208 12.6925 4.91208C13.5184 4.91208 14.2647 5.26773 14.7886 5.83688C15.4434 5.70515 16.0583 5.46147 16.6129 5.12613C16.3986 5.80998 15.9436 6.38352 15.3502 6.74575Z" fill="#304659"/>
</svg>
