<svg width="20" height="22" viewBox="0 0 20 22" fill="none" xmlns="http://www.w3.org/2000/svg">
<path fill-rule="evenodd" clip-rule="evenodd" d="M6 0.168091H14C17.3137 0.168091 20 3.00003 20 6.49341V14.9272C20 18.4206 17.3137 21.2525 14 21.2525H6C2.68629 21.2525 0 18.4206 0 14.9272V6.49341C0 3.00003 2.68629 0.168091 6 0.168091ZM16 3.33075C16.5 3.33075 17 3.85786 17 4.38497C17 4.91208 16.5 5.43919 16 5.43919C15.5 5.43919 15 4.91208 15 4.38497C15 3.85786 15.5 3.33075 16 3.33075ZM15 10.7103C15 7.80328 12.7575 5.43919 10 5.43919C7.2425 5.43919 5 7.80328 5 10.7103C5 13.6173 7.2425 15.9814 10 15.9814C12.7575 15.9814 15 13.6173 15 10.7103ZM10 7.54763C8.34315 7.54763 7 8.9636 7 10.7103C7 12.457 8.34315 13.873 10 13.873C11.6569 13.873 13 12.457 13 10.7103C13 8.9636 11.6569 7.54763 10 7.54763Z" fill="#304659"/>
</svg>
