<svg width="20" height="24" viewBox="0 0 20 24" fill="none" xmlns="http://www.w3.org/2000/svg">
<path fill-rule="evenodd" clip-rule="evenodd" d="M18 0.980469H2C0.89543 0.980469 0 1.98616 0 3.22675V21.197C0 22.4376 0.89543 23.4433 2 23.4433H18C19.1046 23.4433 20 22.4376 20 21.197V3.22675C20 1.98616 19.1046 0.980469 18 0.980469ZM15.3502 7.98815C15.9312 7.91272 16.4847 7.74549 17 7.49698C16.615 8.12205 16.1277 8.6711 15.5661 9.11139C15.5715 9.2453 15.5742 9.37978 15.5742 9.51485C15.5742 13.6365 12.686 18.3891 7.40283 18.3891C5.78051 18.3891 4.27126 17.8728 3 16.9882C3.22507 17.0174 3.45391 17.032 3.68544 17.032C5.03154 17.032 6.26995 16.5332 7.25261 15.6965C5.99588 15.6714 4.93516 14.7691 4.56956 13.5301C4.74455 13.5658 4.92493 13.5857 5.10961 13.5857C5.37183 13.5857 5.62598 13.5477 5.86666 13.4763C4.55232 13.1904 3.56267 11.9297 3.56267 10.4182V10.3791C3.94981 10.6124 4.39295 10.7527 4.86354 10.7691C4.09303 10.2101 3.58636 9.25524 3.58636 8.1735C3.58636 7.60106 3.72797 7.06546 3.97458 6.6047C5.39175 8.49218 7.50783 9.73412 9.89474 9.86393C9.84628 9.63647 9.82043 9.39791 9.82043 9.15349C9.82043 7.4315 11.1062 6.0346 12.6925 6.0346C13.5184 6.0346 14.2647 6.4135 14.7886 7.01985C15.4434 6.87952 16.0583 6.6199 16.6129 6.26264C16.3986 6.9912 15.9436 7.60223 15.3502 7.98815Z" fill="#304659"/>
</svg>
