<svg width="20" height="24" viewBox="0 0 20 24" fill="none" xmlns="http://www.w3.org/2000/svg">
<path fill-rule="evenodd" clip-rule="evenodd" d="M18 0.980469H2C0.89543 0.980469 0 1.98616 0 3.22675V21.197C0 22.4376 0.89543 23.4433 2 23.4433H18C19.1046 23.4433 20 22.4376 20 21.197V3.22675C20 1.98616 19.1046 0.980469 18 0.980469ZM4 6.10653C4 7.0763 4.70032 7.86418 5.56637 7.86418C6.4297 7.86418 7.13184 7.0763 7.13184 6.10653C7.13184 5.13777 6.4297 4.34989 5.56637 4.34989C4.70123 4.34989 4 5.13675 4 6.10653ZM4.25044 18.9507H6.93695V9.25089H4.25044V18.9507ZM17 18.9507H14.3153V14.2337C14.3153 13.1085 14.2971 11.6615 12.9192 11.6615C11.5213 11.6615 11.3064 12.8868 11.3064 14.1519V18.9507H8.62172V9.25089H11.1989V10.5763H11.2354C11.5942 9.81396 12.4703 9.00973 13.7771 9.00973C16.4973 9.00973 17 11.0188 17 13.6307V18.9507Z" fill="#304659"/>
</svg>
