<svg width="20" height="22" viewBox="0 0 20 22" fill="none" xmlns="http://www.w3.org/2000/svg">
<path fill-rule="evenodd" clip-rule="evenodd" d="M18 0.168091H2C0.89543 0.168091 0 1.11207 0 2.27653V19.1441C0 20.3085 0.89543 21.2525 2 21.2525L10 21.2525V13.3148H7V10.3382H10V8.73977C10 5.71354 11.4897 4.38497 13.925 4.38497C15.0684 4.38497 15.6836 4.47081 15.9825 4.51251L16 4.51495V7.36159H14.339C13.3053 7.36159 13 7.92517 13 9.06621V10.3382H15.9741L15.5629 13.3148H13V21.2525L18 21.2525C19.1046 21.2525 20 20.3085 20 19.1441V2.27653C20 1.11207 19.1046 0.168091 18 0.168091Z" fill="#304659"/>
</svg>
