<svg width="11" height="6" viewBox="0 0 11 6" fill="none" xmlns="http://www.w3.org/2000/svg">
<path d="M0.715349 0.976834C0.715349 0.917994 0.74477 0.844444 0.788899 0.800314C0.89187 0.697344 1.05368 0.697344 1.15665 0.785604L5.09893 4.49253C5.17248 4.56608 5.30487 4.56608 5.39313 4.49253L9.33542 0.785604C9.43839 0.682634 9.6002 0.697344 9.70317 0.800314C9.80614 0.903284 9.79143 1.06509 9.68846 1.16806L5.74617 4.87499C5.46668 5.12506 5.02538 5.12506 4.7606 4.87499L0.80361 1.16806C0.744769 1.10922 0.715349 1.05038 0.715349 0.976834Z" fill="#52A073"/>
<path fill-rule="evenodd" clip-rule="evenodd" d="M1.47122 0.43525L5.24603 3.98471L9.00885 0.446541C9.32922 0.133208 9.78664 0.218075 10.036 0.467459C10.3567 0.788106 10.2723 1.24989 10.0213 1.50091L10.0111 1.51115L6.06015 5.22589C5.6072 5.63116 4.88912 5.64307 4.43815 5.21792C4.4379 5.21768 4.4384 5.21815 4.43815 5.21792L0.470582 1.50109C0.347391 1.37789 0.244629 1.20541 0.244629 0.976829C0.244629 0.794571 0.322639 0.600869 0.45605 0.467459C0.73933 0.184178 1.1802 0.18581 1.46299 0.428201L1.47122 0.43525ZM4.7606 4.87499C5.02538 5.12506 5.46668 5.12506 5.74617 4.87499L9.68846 1.16806C9.79143 1.06509 9.80614 0.903284 9.70317 0.800314C9.6002 0.697344 9.43839 0.682634 9.33542 0.785604L5.39313 4.49253C5.30487 4.56608 5.17248 4.56608 5.09893 4.49253L1.15665 0.785604C1.05368 0.697344 0.89187 0.697344 0.788899 0.800314C0.74477 0.844444 0.715349 0.917994 0.715349 0.976834C0.715349 1.05038 0.744769 1.10922 0.80361 1.16806L4.7606 4.87499Z" fill="#52A073"/>
</svg>
